<svg width="442" height="435" viewBox="0 0 442 435" fill="none" xmlns="http://www.w3.org/2000/svg">
<path d="M376.369 433.931C376.369 434.076 304.601 434.2 216.1 434.2C127.599 434.2 55.8001 434.076 55.8001 433.931C55.8001 433.786 127.558 433.662 216.1 433.662C304.642 433.662 376.369 433.796 376.369 433.931Z" fill="#263238"/>
<path d="M306.441 307.406C290.473 296.255 286.855 275.553 287.486 256.939C287.589 253.839 287.248 250.552 288.726 247.834C290.204 245.116 293.656 243.245 296.436 244.547C298.741 245.633 299.743 248.32 301.035 250.542C302.759 253.501 305.285 255.913 308.322 257.497C310.296 258.531 312.745 259.151 314.698 258.076C317.386 256.598 317.696 252.909 317.675 249.808C317.675 244.041 317.641 238.281 317.572 232.527C317.386 229.438 317.7 226.339 318.502 223.35C319.463 220.415 321.602 217.696 324.527 216.87C327.452 216.043 331.101 217.748 331.762 220.766C331.876 222.044 331.907 223.328 331.855 224.611C331.938 225.903 332.537 227.319 333.746 227.711C334.956 228.104 336.217 227.205 337.147 226.295C340.33 223.195 342.5 219.154 344.516 215.164C346.531 211.175 348.505 207.072 351.399 203.671C354.293 200.271 358.293 197.574 362.768 197.315C367.243 197.057 371.904 199.806 373.02 204.147C374.137 208.488 371.604 212.921 368.886 216.446C364.785 221.677 359.95 226.289 354.531 230.14C353.473 230.718 352.629 231.62 352.122 232.714C351.451 234.781 353.404 236.848 355.44 237.499C357.745 238.264 360.246 238.026 362.675 238.315C365.104 238.605 367.687 239.659 368.607 241.933C369.868 245.095 367.222 248.402 364.628 250.573C359.419 254.914 353.504 258.329 347.141 260.67C344.867 261.497 342.48 262.231 340.64 263.823C338.8 265.414 337.705 268.194 338.811 270.375C339.917 272.556 342.759 273.248 345.146 272.804C347.534 272.36 349.652 271.078 351.926 270.22C356.174 268.618 361.652 268.908 364.328 272.577C365.158 273.841 365.683 275.279 365.862 276.78C366.041 278.281 365.87 279.804 365.362 281.227C364.328 284.061 362.736 286.658 360.68 288.865C353.911 296.953 345.116 303.098 335.193 306.673C325.344 310.083 316.218 311.013 306.43 307.427" fill="#009a00"/>
<path d="M368.473 199.868C368.473 199.868 368.38 199.971 368.173 200.157L367.253 200.974C366.447 201.697 365.259 202.752 363.76 204.147C359.511 208.092 355.566 212.352 351.957 216.89C349.652 219.753 347.265 222.998 344.722 226.523C342.18 230.047 339.555 233.85 336.95 237.891C334.174 242.153 331.631 246.562 329.333 251.1C328.134 253.467 327.08 255.937 325.995 258.459L322.791 266.158C318.568 275.857 314.89 285.784 311.774 295.893C309.264 304.164 307.534 312.652 306.606 321.245C306.005 327.045 305.908 332.885 306.317 338.702C306.482 340.769 306.637 342.35 306.782 343.425C306.844 343.942 306.885 344.355 306.926 344.655V345.079C306.882 344.944 306.851 344.806 306.833 344.665C306.782 344.365 306.72 343.962 306.637 343.446C306.451 342.412 306.255 340.779 306.069 338.712C305.57 332.885 305.604 327.025 306.172 321.204C307.042 312.574 308.734 304.046 311.226 295.738C314.316 285.601 317.984 275.649 322.212 265.931L325.499 258.262C326.584 255.751 327.649 253.26 328.858 250.883C331.171 246.331 333.735 241.912 336.537 237.643C339.183 233.509 341.849 229.768 344.361 226.275C346.872 222.781 349.301 219.515 351.595 216.663C355.241 212.136 359.239 207.906 363.553 204.012C365.083 202.638 366.302 201.604 367.129 200.912L368.09 200.137C368.208 200.034 368.336 199.944 368.473 199.868Z" fill="#263238"/>
<path d="M328.992 250.862C328.846 250.436 328.746 249.996 328.692 249.55C328.527 248.692 328.341 247.483 328.124 245.912C327.68 242.811 327.225 238.563 326.739 233.861C326.253 229.158 325.706 224.9 325.251 221.83C325.013 220.301 324.806 219.071 324.662 218.213C324.549 217.774 324.49 217.323 324.486 216.87C324.664 217.284 324.792 217.717 324.868 218.161C325.096 219.009 325.354 220.228 325.644 221.768C326.233 224.869 326.811 229.086 327.297 233.799C327.783 238.512 328.196 242.646 328.517 245.86C328.672 247.307 328.806 248.537 328.909 249.519C328.99 249.962 329.018 250.413 328.992 250.862Z" fill="#263238"/>
<path d="M368.762 243.442C368.259 243.551 367.747 243.613 367.233 243.628C366.199 243.721 364.732 243.845 362.913 244.051C359.274 244.444 354.272 245.168 348.784 246.201C343.296 247.235 338.366 248.402 334.821 249.302C333.054 249.756 331.628 250.17 330.687 250.449C330.185 250.627 329.665 250.752 329.137 250.821C329.614 250.581 330.113 250.384 330.625 250.232C331.597 249.891 333.002 249.415 334.759 248.909C338.284 247.875 343.213 246.646 348.722 245.591C353.389 244.699 358.097 244.044 362.83 243.628C364.659 243.473 366.137 243.411 367.171 243.39C367.702 243.354 368.235 243.371 368.762 243.442Z" fill="#263238"/>
<path d="M311.732 295.014C311.622 294.865 311.532 294.702 311.464 294.529L310.781 293.092C310.192 291.842 309.397 289.992 308.446 287.728C306.523 283.181 304.074 276.814 301.469 269.745C298.865 262.675 296.467 256.309 294.648 251.71C293.759 249.477 293.025 247.648 292.478 246.284L291.899 244.806C291.819 244.635 291.763 244.454 291.734 244.268C291.844 244.418 291.934 244.581 292.002 244.754L292.684 246.191C293.263 247.441 294.069 249.291 295.02 251.555C296.943 256.102 299.392 262.469 301.996 269.538C304.601 276.607 306.999 282.974 308.818 287.573C309.707 289.805 310.44 291.635 310.978 292.999C311.216 293.588 311.412 294.033 311.567 294.477C311.647 294.647 311.703 294.828 311.732 295.014Z" fill="#263238"/>
<path d="M364.525 277.992C364.359 278.087 364.182 278.16 363.998 278.209L362.468 278.726L356.815 280.555C352.04 282.106 345.446 284.318 338.211 286.757C330.977 289.196 324.352 291.366 319.546 292.813C317.148 293.547 315.195 294.105 313.841 294.477L312.28 294.88C312.099 294.938 311.911 294.976 311.722 294.994C311.887 294.899 312.065 294.826 312.249 294.777L313.779 294.26L319.432 292.431C324.207 290.88 330.801 288.669 338.035 286.23C345.27 283.79 351.885 281.62 356.691 280.173C359.099 279.439 361.042 278.881 362.406 278.509L363.967 278.106C364.148 278.048 364.335 278.01 364.525 277.992Z" fill="#263238"/>
<path d="M342.986 27.2898L337.663 29.1915L335.379 22.2359C331.183 9.40984 317.809 2.5989 305.521 6.92938C293.232 11.2599 286.69 25.3261 290.886 38.1522L293.17 45.1078L287.827 47.0199C285.789 47.8102 284.135 49.3552 283.207 51.3339C282.279 53.3126 282.15 55.5728 282.845 57.6445L297.656 102.903C297.963 103.928 298.473 104.882 299.157 105.706C299.84 106.53 300.682 107.209 301.632 107.702C302.583 108.194 303.623 108.491 304.69 108.574C305.758 108.657 306.831 108.524 307.846 108.184L363.005 88.4539C365.07 87.665 366.748 86.1063 367.687 84.1055C368.625 82.1047 368.752 79.8179 368.039 77.7259L353.218 32.4678C352.903 31.4451 352.384 30.4964 351.694 29.6783C351.004 28.8602 350.156 28.1896 349.201 27.7063C348.247 27.2231 347.204 26.9371 346.136 26.8656C345.068 26.794 343.997 26.9383 342.986 27.2898ZM300.942 34.5245C299.811 31.1896 300.014 27.5461 301.509 24.3576C303.004 21.169 305.675 18.6828 308.962 17.4197C310.586 16.8643 312.304 16.6416 314.015 16.7648C315.727 16.8881 317.395 17.3547 318.922 18.137C320.449 18.9193 321.803 20.0011 322.903 21.3179C324.002 22.6348 324.826 24.1597 325.323 25.8016L327.597 32.7572L303.216 41.4802L300.942 34.5245ZM331.948 74.6874L335.731 86.2422C335.8 86.4739 335.778 86.7234 335.668 86.939C335.558 87.1546 335.37 87.3196 335.142 87.3997L329.84 89.2911C329.629 89.3496 329.403 89.3242 329.21 89.2201C329.018 89.1161 328.873 88.9415 328.806 88.733L324.992 77.2298C322.89 77.1153 320.872 76.361 319.209 75.068C317.547 73.7751 316.319 72.0051 315.691 69.9952C314.792 67.3379 314.956 64.4359 316.148 61.8968C317.341 59.3577 319.469 57.3784 322.088 56.3733C323.381 55.9315 324.75 55.7545 326.113 55.853C327.476 55.9514 328.805 56.3232 330.021 56.9463C331.237 57.5693 332.316 58.4308 333.192 59.4794C334.068 60.528 334.724 61.7423 335.121 63.0499C335.786 65.0916 335.841 67.283 335.279 69.3556C334.717 71.4281 333.563 73.2918 331.958 74.7184L331.948 74.6874Z" fill="#009a00"/>
<path d="M337.426 29.0675C337.426 29.2122 327.556 32.9226 315.277 37.3357C302.999 41.7489 292.984 45.2939 292.932 45.1905C292.881 45.0872 302.803 41.3458 315.091 36.9223C327.38 32.4988 337.374 28.9332 337.426 29.0675Z" fill="#263238"/>
<path d="M349.146 30.9692C349.192 31.0589 349.23 31.1523 349.26 31.2483C349.342 31.455 349.435 31.7237 349.559 32.0544C349.828 32.8089 350.2 33.8528 350.665 35.155L354.634 46.7098C356.288 51.6088 358.262 57.4172 360.453 63.8664C361.486 67.1013 362.706 70.4706 363.843 74.0156C364.451 75.8424 364.714 77.7666 364.618 79.6897C364.53 80.6898 364.246 81.6628 363.781 82.5525C363.284 83.4394 362.621 84.2219 361.827 84.8573C360.231 86.0229 358.458 86.9265 356.577 87.5341L351.254 89.4462L341.177 93.0532L324.114 99.1303L312.59 103.182L309.49 104.215L308.663 104.484C308.574 104.523 308.48 104.548 308.384 104.556C308.384 104.556 308.466 104.556 308.642 104.432L309.448 104.112L312.549 102.944L324.011 98.7272L341.043 92.5261L351.099 88.8881L356.422 86.9657C358.25 86.3828 359.971 85.5066 361.517 84.3716C362.255 83.782 362.873 83.0556 363.336 82.2321C363.774 81.4092 364.038 80.5051 364.111 79.576C364.207 77.7231 363.954 75.8687 363.367 74.1086C362.251 70.5946 361.073 67.1943 360.008 63.9594C357.859 57.4999 355.874 51.6708 354.303 46.7719C352.732 41.8729 351.409 37.9352 350.5 35.1654C350.066 33.8114 349.735 32.7572 349.466 31.9924L349.218 31.1656C349.187 31.103 349.163 31.0371 349.146 30.9692Z" fill="#263238"/>
<path d="M320.042 16.7168C320.042 16.7168 319.494 16.4481 318.481 16.0347C317.037 15.48 315.511 15.1725 313.965 15.1252C311.673 15.0466 309.393 15.4773 307.288 16.3861C304.728 17.5178 302.54 19.3483 300.973 21.6674C299.396 23.98 298.55 26.7128 298.544 29.5119C298.566 31.806 298.914 34.0854 299.578 36.2815C300.115 38.1625 300.674 39.6611 301.046 40.705C301.265 41.2352 301.445 41.781 301.583 42.338C301.289 41.8422 301.044 41.3197 300.849 40.7773C300.425 39.7438 299.816 38.2762 299.216 36.3848C298.48 34.1657 298.08 31.8492 298.028 29.5119C298 26.6071 298.866 23.764 300.508 21.3677C302.129 18.9638 304.407 17.0768 307.071 15.9314C309.242 15.0175 311.593 14.6144 313.944 14.7531C315.523 14.8336 317.075 15.2014 318.523 15.8383C318.91 16.0169 319.283 16.2242 319.639 16.4585C319.786 16.523 319.922 16.6102 320.042 16.7168Z" fill="#263238"/>
<path d="M320.517 57.1588C320.682 57.0588 320.855 56.9724 321.034 56.9004C321.551 56.667 322.087 56.4768 322.636 56.332C323.507 56.0749 324.406 55.9222 325.313 55.8772C326.547 55.8109 327.781 55.9973 328.94 56.425C331.586 57.3552 334.015 60.0527 335.214 63.6597C335.789 65.5954 335.789 67.6564 335.214 69.5921C334.576 71.693 333.434 73.6057 331.886 75.1628L331.948 74.8838C333.323 78.6561 334.821 82.7489 336.372 87.0174L336.465 87.2758L336.206 87.3688L333.839 88.1542L328.672 89.8802L328.413 89.9629L328.331 89.7045C326.915 85.4257 325.364 81.4363 324.197 77.5193L324.424 77.695C322.403 77.5271 320.477 76.7688 318.884 75.5142C317.443 74.4044 316.262 72.9935 315.422 71.3801C314.664 69.9493 314.287 68.3478 314.326 66.7292C314.374 65.075 314.787 63.4519 315.536 61.976C316.285 60.5001 317.35 59.208 318.657 58.1923C319.195 57.7557 319.798 57.4069 320.445 57.1588C319.861 57.5052 319.295 57.8812 318.75 58.2853C317.315 59.4996 316.215 61.0618 315.556 62.8225C314.991 64.1502 314.726 65.5867 314.782 67.0287C314.837 68.4707 315.211 69.8826 315.877 71.1631C316.702 72.7152 317.856 74.0694 319.256 75.1318C320.776 76.3243 322.612 77.0432 324.538 77.1989H324.713L324.765 77.3539C325.902 81.1986 327.463 85.219 328.899 89.5185L328.558 89.3531L333.726 87.6271L336.082 86.8313L335.917 87.1827C334.377 82.9143 332.889 78.8112 331.524 75.0388V74.8838L331.648 74.7597C333.151 73.2672 334.271 71.4343 334.914 69.4164C335.462 67.5648 335.462 65.594 334.914 63.7423C333.788 60.2697 331.462 57.6342 328.94 56.704C327.824 56.2736 326.632 56.0732 325.437 56.1149C324.544 56.1354 323.656 56.2567 322.791 56.4767C321.251 56.8591 320.528 57.2105 320.517 57.1588Z" fill="#263238"/>
<path d="M288.571 355.579L185.332 355.104C179.37 355.071 173.665 352.673 169.469 348.437C165.274 344.201 162.931 338.473 162.956 332.511L164.052 73.7054C164.064 70.7517 164.658 67.8293 165.8 65.1053C166.943 62.3813 168.61 59.9091 170.709 57.8301C172.807 55.7511 175.294 54.106 178.029 52.9888C180.763 51.8716 183.691 51.3043 186.645 51.3193L289.873 51.7947C295.835 51.8248 301.541 54.2199 305.739 58.4541C309.936 62.6882 312.281 68.4152 312.259 74.3772L311.164 333.172C311.152 336.127 310.558 339.05 309.416 341.776C308.274 344.501 306.606 346.974 304.508 349.055C302.41 351.136 299.923 352.783 297.188 353.902C294.454 355.021 291.526 355.591 288.571 355.579Z" fill="#455A64"/>
<path d="M289.718 60.6933H269.709C269.056 60.7055 268.412 60.8461 267.814 61.1071C267.215 61.3682 266.674 61.7446 266.221 62.2149C265.768 62.6852 265.412 63.2401 265.173 63.848C264.935 64.4559 264.819 65.1048 264.831 65.7576V69.3853C264.843 70.0377 264.727 70.6861 264.488 71.2933C264.249 71.9006 263.893 72.4549 263.44 72.9243C262.987 73.3938 262.446 73.7692 261.847 74.0292C261.249 74.2891 260.605 74.4285 259.953 74.4393L220.947 74.2636C219.628 74.2284 218.376 73.6709 217.467 72.7136C216.558 71.7564 216.067 70.4775 216.1 69.1579V65.5303C216.133 64.2124 215.643 62.9351 214.736 61.9781C213.83 61.0211 212.581 60.4625 211.263 60.4246H204.225L186.707 60.342C182.54 60.3171 178.533 61.9444 175.563 64.8675C172.594 67.7906 170.904 71.7712 170.863 75.9379L169.829 328.552C169.82 330.62 170.217 332.668 171 334.582C171.782 336.495 172.933 338.236 174.388 339.704C175.843 341.172 177.573 342.34 179.479 343.14C181.385 343.939 183.43 344.356 185.497 344.365L288.519 344.841C290.588 344.85 292.638 344.452 294.552 343.67C296.467 342.887 298.209 341.735 299.678 340.279C301.147 338.823 302.316 337.092 303.116 335.184C303.916 333.277 304.333 331.231 304.343 329.162L305.376 76.5476C305.401 72.3692 303.765 68.352 300.829 65.379C297.893 62.4061 293.897 60.7207 289.718 60.6933Z" fill="white"/>
<path d="M275.859 311.138L199.254 310.807C198.458 310.807 197.817 309.939 197.827 308.884L197.91 288.844C197.91 287.811 198.561 286.922 199.357 286.922L275.962 287.273C276.403 287.35 276.797 287.593 277.063 287.953C277.329 288.313 277.445 288.762 277.388 289.206L277.316 309.225C277.316 310.29 276.654 311.148 275.859 311.138Z" fill="#009a00"/>
<path d="M222.544 300.925C222.122 300.925 221.715 300.857 221.325 300.722C220.94 300.581 220.642 300.402 220.43 300.185L220.666 299.721C220.867 299.917 221.135 300.082 221.471 300.217C221.813 300.348 222.17 300.413 222.544 300.413C222.902 300.413 223.192 300.369 223.414 300.283C223.642 300.19 223.807 300.068 223.91 299.917C224.019 299.765 224.073 299.597 224.073 299.412C224.073 299.19 224.008 299.011 223.878 298.876C223.753 298.74 223.588 298.635 223.382 298.559C223.176 298.477 222.948 298.407 222.699 298.347C222.45 298.288 222.2 298.225 221.951 298.16C221.701 298.09 221.471 297.998 221.26 297.884C221.054 297.77 220.886 297.621 220.756 297.437C220.631 297.247 220.569 297 220.569 296.697C220.569 296.415 220.642 296.157 220.788 295.924C220.94 295.686 221.17 295.496 221.479 295.355C221.788 295.209 222.184 295.135 222.666 295.135C222.986 295.135 223.303 295.181 223.618 295.274C223.932 295.36 224.203 295.482 224.431 295.64L224.228 296.119C223.984 295.957 223.723 295.837 223.447 295.762C223.176 295.686 222.913 295.648 222.658 295.648C222.317 295.648 222.035 295.694 221.813 295.786C221.59 295.878 221.425 296.003 221.317 296.16C221.214 296.312 221.162 296.485 221.162 296.68C221.162 296.903 221.224 297.081 221.349 297.217C221.479 297.353 221.647 297.458 221.853 297.534C222.065 297.61 222.295 297.678 222.544 297.737C222.794 297.797 223.04 297.862 223.284 297.933C223.534 298.003 223.761 298.095 223.967 298.209C224.179 298.317 224.347 298.464 224.472 298.648C224.602 298.832 224.667 299.074 224.667 299.372C224.667 299.648 224.591 299.906 224.439 300.144C224.287 300.377 224.054 300.567 223.74 300.713C223.431 300.854 223.032 300.925 222.544 300.925ZM225.978 300.876V295.184H226.579V300.876H225.978ZM228.431 300.876V295.184H228.927L232.855 300.128H232.595V295.184H233.188V300.876H232.692L228.773 295.932H229.033V300.876H228.431ZM237.542 300.925C237.109 300.925 236.708 300.854 236.339 300.713C235.976 300.567 235.659 300.364 235.388 300.104C235.122 299.843 234.913 299.537 234.761 299.185C234.615 298.832 234.542 298.448 234.542 298.03C234.542 297.613 234.615 297.228 234.761 296.876C234.913 296.523 235.125 296.217 235.396 295.957C235.667 295.696 235.984 295.496 236.347 295.355C236.716 295.209 237.117 295.135 237.55 295.135C237.984 295.135 238.38 295.203 238.738 295.339C239.101 295.474 239.41 295.68 239.665 295.957L239.291 296.339C239.052 296.1 238.789 295.93 238.502 295.827C238.215 295.724 237.906 295.672 237.575 295.672C237.223 295.672 236.897 295.732 236.599 295.851C236.306 295.965 236.049 296.13 235.827 296.347C235.61 296.558 235.439 296.808 235.314 297.095C235.195 297.377 235.135 297.689 235.135 298.03C235.135 298.366 235.195 298.678 235.314 298.965C235.439 299.253 235.61 299.505 235.827 299.721C236.049 299.933 236.306 300.098 236.599 300.217C236.897 300.331 237.22 300.388 237.567 300.388C237.892 300.388 238.198 300.339 238.486 300.242C238.778 300.144 239.047 299.979 239.291 299.746L239.632 300.201C239.361 300.44 239.044 300.621 238.681 300.746C238.318 300.865 237.938 300.925 237.542 300.925ZM239.055 300.128V298.03H239.632V300.201L239.055 300.128ZM245.756 300.925C245.03 300.925 244.458 300.716 244.041 300.299C243.623 299.881 243.414 299.263 243.414 298.445V295.184H244.016V298.42C244.016 299.093 244.168 299.589 244.471 299.908C244.775 300.228 245.203 300.388 245.756 300.388C246.315 300.388 246.746 300.228 247.049 299.908C247.353 299.589 247.504 299.093 247.504 298.42V295.184H248.09V298.445C248.09 299.263 247.881 299.881 247.464 300.299C247.052 300.716 246.483 300.925 245.756 300.925ZM249.903 300.876V295.184H252.033C252.516 295.184 252.931 295.263 253.278 295.42C253.625 295.572 253.89 295.794 254.074 296.087C254.264 296.374 254.359 296.724 254.359 297.136C254.359 297.537 254.264 297.884 254.074 298.177C253.89 298.464 253.625 298.686 253.278 298.843C252.931 299 252.516 299.079 252.033 299.079H250.236L250.505 298.794V300.876H249.903ZM250.505 298.843L250.236 298.551H252.017C252.586 298.551 253.017 298.429 253.31 298.185C253.608 297.935 253.757 297.586 253.757 297.136C253.757 296.68 253.608 296.328 253.31 296.079C253.017 295.829 252.586 295.705 252.017 295.705H250.236L250.505 295.42V298.843Z" fill="#E8E8E3"/>
<path d="M214.533 134.952L187.951 134.832L187.929 139.71L214.511 139.831L214.533 134.952Z" fill="#009a00"/>
<path opacity="0.1" d="M214.533 134.952L187.951 134.832L187.929 139.71L214.511 139.831L214.533 134.952Z" fill="black"/>
<path d="M292.457 164.904C292.666 164.883 292.871 164.834 293.067 164.759C293.353 164.647 293.602 164.457 293.784 164.21C293.967 163.963 294.077 163.67 294.1 163.364C294.1 161.721 294.1 159.323 294.1 156.243C294.1 154.703 294.1 152.977 294.1 151.075C294.1 150.61 294.1 150.124 294.1 149.639C294.168 149.167 294.065 148.687 293.811 148.285C293.669 148.092 293.484 147.934 293.27 147.825C293.057 147.716 292.821 147.657 292.581 147.654H290.969H276.034L189.59 147.334C189.369 147.33 189.15 147.38 188.952 147.479C188.754 147.578 188.583 147.723 188.453 147.902C188.204 148.307 188.108 148.787 188.184 149.256C188.184 150.29 188.184 151.323 188.184 152.357C188.184 154.424 188.184 156.491 188.184 158.558C188.184 159.592 188.184 160.625 188.184 161.659C188.142 162.14 188.142 162.624 188.184 163.106C188.239 163.312 188.34 163.503 188.479 163.664C188.619 163.826 188.794 163.953 188.991 164.036C189.194 164.117 189.412 164.155 189.631 164.149H194.892L217.847 164.273L256.707 164.511L282.907 164.718L290.028 164.801H291.878C292.302 164.801 292.509 164.801 292.509 164.801H291.878H290.028H282.907H256.707L217.847 164.676L194.892 164.583H189.631C189.342 164.595 189.053 164.546 188.784 164.439C188.512 164.323 188.27 164.146 188.076 163.922C187.883 163.698 187.743 163.433 187.668 163.147C187.608 162.876 187.587 162.597 187.606 162.32V161.555C187.606 160.522 187.606 159.488 187.606 158.455C187.606 156.388 187.606 154.321 187.606 152.254C187.606 151.22 187.606 150.186 187.606 149.153C187.586 148.878 187.586 148.601 187.606 148.326C187.644 148.022 187.762 147.733 187.947 147.489C188.125 147.239 188.361 147.037 188.635 146.898C188.908 146.76 189.211 146.689 189.518 146.693L275.962 147.169L290.896 147.272H292.509C292.793 147.272 293.073 147.341 293.324 147.472C293.576 147.603 293.793 147.794 293.956 148.026C294.247 148.476 294.365 149.016 294.286 149.546C294.286 150.031 294.286 150.517 294.286 150.982C294.286 152.863 294.286 154.589 294.286 156.15C294.286 159.25 294.214 161.628 294.193 163.281C294.168 163.599 294.052 163.903 293.86 164.158C293.668 164.412 293.407 164.607 293.108 164.718C292.913 164.839 292.687 164.903 292.457 164.904Z" fill="#E0E0E0"/>
<path d="M244.553 152.522H195.936V157.08H244.553V152.522Z" fill="#009a00"/>
<path opacity="0.2" d="M244.553 152.522H195.936V157.08H244.553V152.522Z" fill="white"/>
<path d="M214.352 179.455L187.77 179.334L187.748 184.212L214.33 184.333L214.352 179.455Z" fill="#009a00"/>
<path opacity="0.1" d="M214.352 179.455L187.77 179.334L187.748 184.212L214.33 184.333L214.352 179.455Z" fill="black"/>
<path d="M291.785 209.407C291.994 209.382 292.201 209.344 292.405 209.294C292.694 209.202 292.96 209.049 293.184 208.846C293.409 208.643 293.587 208.394 293.708 208.116C293.87 207.698 293.934 207.249 293.894 206.803C293.894 206.307 293.894 205.769 293.894 205.17C293.894 203.971 293.894 202.607 293.894 201.036V194.473C293.943 193.998 293.838 193.519 293.594 193.109C293.339 192.688 292.938 192.375 292.467 192.23C291.953 192.138 291.428 192.111 290.907 192.148H276.034L189.89 191.827C189.426 191.828 188.979 191.998 188.631 192.304C188.283 192.61 188.059 193.032 187.998 193.491C187.998 194.473 187.998 195.558 187.998 196.592C187.998 198.659 187.998 200.726 187.998 202.793C187.998 203.826 187.998 204.86 187.998 205.893C187.96 206.377 187.981 206.862 188.06 207.34C188.19 207.759 188.455 208.123 188.815 208.374C189.197 208.616 189.645 208.732 190.097 208.705H191.533H194.52L217.392 208.818L256.118 209.056L282.225 209.263L289.325 209.345H282.225H256.118L217.371 209.304L194.499 209.221H190.004C189.445 209.255 188.89 209.106 188.422 208.798C187.952 208.472 187.609 207.994 187.451 207.444C187.358 206.919 187.33 206.384 187.368 205.852C187.368 204.819 187.368 203.785 187.368 202.752C187.368 200.685 187.368 198.617 187.368 196.55C187.368 195.517 187.368 194.483 187.368 193.45C187.443 192.859 187.732 192.316 188.179 191.922C188.626 191.528 189.201 191.311 189.797 191.31L275.941 191.786L290.814 191.9C291.368 191.866 291.923 191.904 292.467 192.013C293.004 192.189 293.457 192.557 293.739 193.047C294.006 193.502 294.122 194.03 294.069 194.556C294.069 195.041 294.069 195.517 294.069 195.992C294.069 197.863 294.069 199.579 294.069 201.16C294.069 202.741 294.069 204.074 294.069 205.294C294.069 205.883 294.069 206.431 294.069 206.937C294.107 207.4 294.032 207.864 293.852 208.291C293.718 208.576 293.524 208.829 293.283 209.033C293.042 209.236 292.761 209.385 292.457 209.469C292.231 209.488 292.004 209.467 291.785 209.407Z" fill="#E0E0E0"/>
<path d="M214.152 225.89L187.57 225.769L187.548 230.647L214.13 230.768L214.152 225.89Z" fill="#009a00"/>
<path opacity="0.1" d="M214.152 225.89L187.57 225.769L187.548 230.647L214.13 230.768L214.152 225.89Z" fill="black"/>
<path d="M291.578 255.823C291.787 255.799 291.995 255.761 292.199 255.71C292.486 255.618 292.751 255.467 292.975 255.265C293.2 255.064 293.379 254.817 293.501 254.542C293.663 254.124 293.727 253.675 293.687 253.229C293.687 252.723 293.687 252.196 293.687 251.586C293.687 250.397 293.687 249.023 293.687 247.452V240.889C293.736 240.414 293.631 239.935 293.387 239.524C293.126 239.111 292.727 238.803 292.261 238.656C291.746 238.561 291.222 238.53 290.7 238.563H275.828L189.683 238.243C189.22 238.244 188.773 238.413 188.425 238.719C188.077 239.025 187.852 239.447 187.792 239.907C187.792 240.94 187.792 241.974 187.792 243.007C187.792 245.075 187.792 247.142 187.792 249.209C187.792 250.242 187.792 251.276 187.792 252.309C187.753 252.789 187.774 253.271 187.854 253.746C187.978 254.168 188.244 254.533 188.608 254.779C188.988 255.027 189.438 255.143 189.89 255.11H194.386L217.258 255.234L255.984 255.472L282.091 255.679L289.191 255.761H282.091H255.984L217.258 255.648L194.386 255.554H189.89C189.33 255.592 188.774 255.443 188.309 255.131C187.838 254.805 187.495 254.327 187.337 253.777C187.244 253.252 187.217 252.717 187.254 252.185C187.254 251.152 187.254 250.118 187.254 249.085C187.254 247.018 187.254 244.951 187.254 242.883C187.254 241.85 187.254 240.816 187.254 239.731C187.327 239.141 187.614 238.598 188.059 238.204C188.504 237.81 189.078 237.592 189.673 237.592L275.817 238.067L290.69 238.181C291.243 238.147 291.799 238.185 292.343 238.295C292.88 238.47 293.333 238.838 293.615 239.328C293.882 239.783 293.998 240.312 293.945 240.837C293.945 241.323 293.945 241.809 293.945 242.274C293.945 244.144 293.945 245.86 293.945 247.441C293.945 249.023 293.945 250.356 293.945 251.575C293.945 252.165 293.945 252.712 293.945 253.219C293.985 253.681 293.91 254.146 293.728 254.573C293.594 254.858 293.4 255.111 293.159 255.314C292.918 255.517 292.637 255.666 292.333 255.751C292.091 255.834 291.832 255.859 291.578 255.823Z" fill="#E0E0E0"/>
<path d="M243.515 198.314L194.899 198.094L194.878 202.652L243.495 202.872L243.515 198.314Z" fill="#009a00"/>
<path opacity="0.2" d="M243.515 198.314L194.899 198.094L194.878 202.652L243.495 202.872L243.515 198.314Z" fill="white"/>
<path d="M199.295 247.39C199.264 247.805 199.113 248.203 198.858 248.533C198.604 248.863 198.258 249.112 197.864 249.247C197.47 249.383 197.044 249.4 196.641 249.296C196.237 249.192 195.873 248.971 195.593 248.662C195.313 248.353 195.13 247.969 195.067 247.557C195.004 247.145 195.063 246.723 195.237 246.345C195.411 245.966 195.693 245.647 196.046 245.426C196.4 245.206 196.811 245.094 197.228 245.105C197.804 245.138 198.344 245.395 198.731 245.823C199.117 246.251 199.32 246.813 199.295 247.39Z" fill="#009a00"/>
<path d="M205.878 247.421C205.899 247.712 205.859 248.004 205.761 248.28C205.664 248.555 205.511 248.807 205.312 249.021C205.112 249.235 204.871 249.405 204.603 249.521C204.336 249.638 204.047 249.698 203.755 249.698C203.462 249.698 203.174 249.638 202.906 249.521C202.638 249.405 202.397 249.235 202.198 249.021C201.998 248.807 201.845 248.555 201.748 248.28C201.65 248.004 201.61 247.712 201.631 247.421C201.61 247.129 201.65 246.837 201.748 246.562C201.845 246.286 201.998 246.034 202.198 245.82C202.397 245.607 202.638 245.436 202.906 245.32C203.174 245.203 203.462 245.143 203.755 245.143C204.047 245.143 204.336 245.203 204.603 245.32C204.871 245.436 205.112 245.607 205.312 245.82C205.511 246.034 205.664 246.286 205.761 246.562C205.859 246.837 205.899 247.129 205.878 247.421Z" fill="#009a00"/>
<path d="M212.472 247.452C212.442 247.867 212.29 248.265 212.036 248.595C211.781 248.925 211.435 249.174 211.041 249.309C210.647 249.445 210.222 249.462 209.818 249.358C209.414 249.254 209.05 249.034 208.77 248.724C208.491 248.415 208.308 248.031 208.245 247.619C208.181 247.207 208.24 246.785 208.415 246.407C208.589 246.028 208.87 245.709 209.224 245.488C209.578 245.268 209.989 245.156 210.405 245.167C210.98 245.202 211.519 245.461 211.905 245.888C212.291 246.315 212.495 246.876 212.472 247.452Z" fill="#009a00"/>
<path d="M219.056 247.483C219.025 247.898 218.874 248.296 218.619 248.626C218.365 248.956 218.019 249.205 217.625 249.34C217.231 249.476 216.805 249.493 216.402 249.389C215.998 249.285 215.634 249.065 215.354 248.755C215.074 248.446 214.891 248.062 214.828 247.65C214.765 247.238 214.824 246.816 214.998 246.438C215.172 246.059 215.454 245.74 215.808 245.519C216.161 245.299 216.572 245.187 216.989 245.198C217.564 245.233 218.102 245.492 218.488 245.919C218.875 246.346 219.079 246.907 219.056 247.483Z" fill="#009a00"/>
<path d="M225.64 247.503C225.611 247.92 225.461 248.318 225.207 248.65C224.954 248.982 224.609 249.232 224.215 249.369C223.821 249.506 223.395 249.524 222.99 249.421C222.586 249.318 222.221 249.099 221.94 248.79C221.659 248.481 221.476 248.097 221.412 247.684C221.348 247.272 221.406 246.85 221.58 246.471C221.754 246.091 222.036 245.771 222.39 245.551C222.744 245.33 223.155 245.218 223.572 245.23C224.145 245.264 224.682 245.521 225.068 245.946C225.454 246.371 225.659 246.93 225.64 247.503Z" fill="#009a00"/>
<path d="M232.233 247.534C232.205 247.948 232.057 248.345 231.806 248.676C231.555 249.007 231.213 249.257 230.821 249.396C230.43 249.535 230.007 249.556 229.604 249.458C229.2 249.359 228.835 249.145 228.552 248.841C228.269 248.537 228.081 248.157 228.011 247.748C227.941 247.339 227.992 246.918 228.158 246.538C228.324 246.157 228.598 245.834 228.946 245.607C229.293 245.38 229.7 245.259 230.115 245.261C230.697 245.282 231.247 245.533 231.644 245.96C232.041 246.386 232.253 246.952 232.233 247.534Z" fill="#009a00"/>
<path d="M238.817 247.565C238.837 247.857 238.797 248.149 238.7 248.424C238.602 248.7 238.449 248.952 238.25 249.166C238.051 249.379 237.81 249.55 237.542 249.666C237.274 249.782 236.985 249.843 236.693 249.843C236.401 249.843 236.112 249.782 235.844 249.666C235.576 249.55 235.335 249.379 235.136 249.166C234.937 248.952 234.784 248.7 234.686 248.424C234.589 248.149 234.549 247.857 234.569 247.565C234.549 247.274 234.589 246.981 234.686 246.706C234.784 246.431 234.937 246.178 235.136 245.965C235.335 245.751 235.576 245.581 235.844 245.465C236.112 245.348 236.401 245.288 236.693 245.288C236.985 245.288 237.274 245.348 237.542 245.465C237.81 245.581 238.051 245.751 238.25 245.965C238.449 246.178 238.602 246.431 238.7 246.706C238.797 246.981 238.837 247.274 238.817 247.565Z" fill="#009a00"/>
<path d="M245.401 247.596C245.372 248.01 245.224 248.407 244.973 248.738C244.722 249.069 244.38 249.319 243.989 249.458C243.597 249.597 243.174 249.618 242.771 249.52C242.367 249.421 242.002 249.207 241.719 248.903C241.436 248.599 241.248 248.219 241.178 247.81C241.108 247.401 241.159 246.98 241.325 246.6C241.491 246.219 241.765 245.896 242.113 245.669C242.46 245.442 242.867 245.321 243.282 245.323C243.864 245.344 244.414 245.595 244.811 246.022C245.208 246.448 245.42 247.014 245.401 247.596Z" fill="#009a00"/>
<path d="M251.984 247.627C251.956 248.044 251.805 248.442 251.552 248.774C251.299 249.106 250.954 249.356 250.559 249.493C250.165 249.63 249.74 249.648 249.335 249.545C248.931 249.442 248.565 249.223 248.285 248.914C248.004 248.605 247.82 248.221 247.756 247.808C247.692 247.396 247.751 246.974 247.925 246.595C248.099 246.215 248.38 245.895 248.734 245.675C249.089 245.454 249.5 245.342 249.917 245.354C250.49 245.388 251.027 245.645 251.413 246.07C251.799 246.495 252.004 247.054 251.984 247.627Z" fill="#009a00"/>
<g opacity="0.2">
<path d="M199.295 247.39C199.264 247.805 199.113 248.203 198.858 248.533C198.604 248.863 198.258 249.112 197.864 249.247C197.47 249.383 197.044 249.4 196.641 249.296C196.237 249.192 195.873 248.971 195.593 248.662C195.313 248.353 195.13 247.969 195.067 247.557C195.004 247.145 195.063 246.723 195.237 246.345C195.411 245.966 195.693 245.647 196.046 245.426C196.4 245.206 196.811 245.094 197.228 245.105C197.804 245.138 198.344 245.395 198.731 245.823C199.117 246.251 199.32 246.813 199.295 247.39Z" fill="white"/>
<path d="M205.878 247.421C205.899 247.712 205.859 248.004 205.761 248.28C205.664 248.555 205.511 248.807 205.312 249.021C205.112 249.235 204.871 249.405 204.603 249.521C204.336 249.638 204.047 249.698 203.755 249.698C203.462 249.698 203.174 249.638 202.906 249.521C202.638 249.405 202.397 249.235 202.198 249.021C201.998 248.807 201.845 248.555 201.748 248.28C201.65 248.004 201.61 247.712 201.631 247.421C201.61 247.129 201.65 246.837 201.748 246.562C201.845 246.286 201.998 246.034 202.198 245.82C202.397 245.607 202.638 245.436 202.906 245.32C203.174 245.203 203.462 245.143 203.755 245.143C204.047 245.143 204.336 245.203 204.603 245.32C204.871 245.436 205.112 245.607 205.312 245.82C205.511 246.034 205.664 246.286 205.761 246.562C205.859 246.837 205.899 247.129 205.878 247.421Z" fill="white"/>
<path d="M212.472 247.452C212.442 247.867 212.29 248.265 212.036 248.595C211.781 248.925 211.435 249.174 211.041 249.309C210.647 249.445 210.222 249.462 209.818 249.358C209.414 249.254 209.05 249.034 208.77 248.724C208.491 248.415 208.308 248.031 208.245 247.619C208.181 247.207 208.24 246.785 208.415 246.407C208.589 246.028 208.87 245.709 209.224 245.488C209.578 245.268 209.989 245.156 210.405 245.167C210.98 245.202 211.518 245.461 211.905 245.888C212.291 246.315 212.495 246.876 212.472 247.452Z" fill="white"/>
<path d="M219.056 247.483C219.025 247.898 218.874 248.296 218.619 248.626C218.365 248.956 218.019 249.205 217.625 249.34C217.231 249.476 216.805 249.493 216.402 249.389C215.998 249.285 215.634 249.065 215.354 248.755C215.074 248.446 214.891 248.062 214.828 247.65C214.765 247.238 214.824 246.816 214.998 246.438C215.172 246.059 215.454 245.74 215.808 245.519C216.161 245.299 216.572 245.187 216.989 245.198C217.564 245.233 218.102 245.492 218.488 245.919C218.875 246.346 219.079 246.907 219.056 247.483Z" fill="white"/>
<path d="M225.639 247.503C225.611 247.92 225.461 248.318 225.207 248.65C224.954 248.982 224.609 249.232 224.215 249.369C223.821 249.506 223.395 249.524 222.99 249.421C222.586 249.318 222.221 249.099 221.94 248.79C221.659 248.481 221.476 248.097 221.412 247.684C221.348 247.272 221.406 246.85 221.58 246.471C221.754 246.091 222.036 245.771 222.39 245.551C222.744 245.33 223.155 245.218 223.572 245.23C224.145 245.264 224.682 245.521 225.068 245.946C225.454 246.371 225.659 246.93 225.639 247.503Z" fill="white"/>
<path d="M232.233 247.534C232.205 247.948 232.057 248.345 231.806 248.676C231.555 249.007 231.213 249.257 230.821 249.396C230.43 249.535 230.007 249.556 229.604 249.458C229.2 249.359 228.835 249.145 228.552 248.841C228.269 248.537 228.081 248.157 228.011 247.748C227.941 247.339 227.992 246.918 228.158 246.538C228.324 246.157 228.598 245.834 228.945 245.607C229.293 245.38 229.7 245.259 230.115 245.261C230.697 245.282 231.247 245.533 231.644 245.96C232.041 246.386 232.253 246.952 232.233 247.534Z" fill="white"/>
<path d="M238.817 247.565C238.837 247.857 238.797 248.149 238.7 248.424C238.602 248.7 238.449 248.952 238.25 249.166C238.051 249.379 237.81 249.55 237.542 249.666C237.274 249.782 236.985 249.843 236.693 249.843C236.401 249.843 236.112 249.782 235.844 249.666C235.576 249.55 235.335 249.379 235.136 249.166C234.937 248.952 234.784 248.7 234.686 248.424C234.589 248.149 234.549 247.857 234.569 247.565C234.549 247.274 234.589 246.981 234.686 246.706C234.784 246.431 234.937 246.178 235.136 245.965C235.335 245.751 235.576 245.581 235.844 245.465C236.112 245.348 236.401 245.288 236.693 245.288C236.985 245.288 237.274 245.348 237.542 245.465C237.81 245.581 238.051 245.751 238.25 245.965C238.449 246.178 238.602 246.431 238.7 246.706C238.797 246.981 238.837 247.274 238.817 247.565Z" fill="white"/>
<path d="M245.401 247.596C245.372 248.01 245.224 248.407 244.973 248.738C244.722 249.069 244.38 249.319 243.988 249.458C243.597 249.597 243.174 249.618 242.771 249.52C242.367 249.421 242.002 249.207 241.719 248.903C241.436 248.599 241.248 248.219 241.178 247.81C241.108 247.401 241.159 246.98 241.325 246.6C241.491 246.219 241.765 245.896 242.113 245.669C242.46 245.442 242.867 245.321 243.282 245.323C243.864 245.344 244.414 245.595 244.811 246.022C245.208 246.448 245.42 247.014 245.401 247.596Z" fill="white"/>
<path d="M251.984 247.627C251.956 248.044 251.805 248.442 251.552 248.774C251.299 249.106 250.954 249.356 250.559 249.493C250.165 249.63 249.74 249.648 249.335 249.545C248.931 249.442 248.565 249.223 248.285 248.914C248.004 248.605 247.82 248.221 247.756 247.808C247.692 247.396 247.751 246.974 247.925 246.595C248.099 246.215 248.38 245.895 248.734 245.675C249.089 245.454 249.5 245.342 249.917 245.354C250.49 245.388 251.027 245.645 251.413 246.07C251.799 246.495 252.004 247.054 251.984 247.627Z" fill="white"/>
</g>
<path d="M242.631 98.4274C243.349 98.1113 243.958 97.591 244.382 96.9312C244.807 96.2715 245.028 95.5015 245.018 94.7171C245.045 94.2071 244.968 93.6971 244.791 93.218C244.614 92.7389 244.342 92.3009 243.99 91.9304C243.639 91.56 243.216 91.265 242.746 91.0635C242.277 90.8619 241.772 90.7579 241.261 90.7579C240.751 90.7579 240.245 90.8619 239.776 91.0635C239.307 91.265 238.884 91.56 238.532 91.9304C238.181 92.3009 237.908 92.7389 237.732 93.218C237.555 93.6971 237.478 94.2071 237.504 94.7171C237.489 95.5094 237.708 96.2886 238.135 96.9563C238.562 97.624 239.177 98.1503 239.902 98.4688C234.114 99.337 234.373 105.621 234.373 105.621L248.057 105.683C248.057 105.683 248.377 99.2853 242.631 98.4274Z" fill="#009a00"/>
<path opacity="0.1" d="M242.631 98.4274C243.349 98.1113 243.958 97.591 244.382 96.9312C244.807 96.2715 245.028 95.5015 245.018 94.7171C245.045 94.2071 244.968 93.6971 244.791 93.218C244.614 92.7389 244.342 92.3009 243.99 91.9304C243.639 91.56 243.216 91.265 242.746 91.0635C242.277 90.8619 241.772 90.7579 241.261 90.7579C240.751 90.7579 240.245 90.8619 239.776 91.0635C239.307 91.265 238.884 91.56 238.532 91.9304C238.181 92.3009 237.908 92.7389 237.732 93.218C237.555 93.6971 237.478 94.2071 237.504 94.7171C237.489 95.5094 237.708 96.2886 238.135 96.9563C238.562 97.624 239.177 98.1503 239.902 98.4688C234.114 99.337 234.373 105.621 234.373 105.621L248.057 105.683C248.057 105.683 248.377 99.2853 242.631 98.4274Z" fill="black"/>
<path d="M264.866 109.736L216.095 109.514L216.068 115.343L264.84 115.565L264.866 109.736Z" fill="#009a00"/>
<path opacity="0.2" d="M264.866 109.736L216.095 109.514L216.068 115.343L264.84 115.565L264.866 109.736Z" fill="white"/>
<path d="M85.5657 139.944H85.0799L83.6743 140.048C82.9136 140.093 82.1572 140.193 81.4109 140.347C80.9275 140.415 80.4479 140.508 79.9743 140.626L78.3723 141.071C75.6457 141.907 73.0731 143.181 70.7552 144.843C67.6928 147.066 65.1356 149.912 63.2518 153.194C62.1446 155.086 61.2635 157.101 60.6267 159.199C59.9574 161.478 59.5721 163.832 59.4795 166.206C59.4179 167.453 59.4386 168.703 59.5415 169.947C59.5415 170.578 59.7172 171.208 59.7998 171.849C59.8694 172.495 59.9903 173.134 60.1616 173.761C61.0909 177.908 62.9767 181.781 65.6683 185.07C68.36 188.36 71.783 190.974 75.6645 192.706C78.4737 193.918 81.4847 194.594 84.5425 194.7C87.7006 194.874 90.862 194.421 93.8442 193.367L94.7537 193.026H94.8777L94.9811 193.088L108.014 199.703L107.631 200.033C106.236 195.713 104.893 191.527 103.59 187.507V187.352L103.704 187.238C106.866 184.054 109.213 180.154 110.546 175.87C111.754 171.952 112.106 167.822 111.58 163.757C111.111 160.144 109.95 156.656 108.159 153.483C106.615 150.758 104.623 148.313 102.267 146.249C100.324 144.615 98.1727 143.246 95.8699 142.177C94.1275 141.425 92.3129 140.854 90.4542 140.471L88.3872 140.13L86.8886 140.017L85.9791 139.955H85.669C85.772 139.943 85.876 139.943 85.9791 139.955H86.8989L88.3975 140.017L90.4646 140.316C92.3463 140.671 94.1857 141.221 95.9526 141.96C98.2949 143.016 100.485 144.382 102.464 146.021C104.863 148.076 106.897 150.522 108.479 153.256C110.321 156.462 111.518 159.998 112.003 163.664C112.574 167.791 112.246 171.994 111.042 175.983C109.7 180.357 107.317 184.34 104.097 187.59L104.159 187.321C105.461 191.341 106.815 195.527 108.221 199.837L108.417 200.467L107.828 200.168L94.795 193.564H95.0224L94.0923 193.905C91.0526 194.974 87.8328 195.438 84.6148 195.269C81.4912 195.15 78.4172 194.449 75.5508 193.202C70.0831 190.86 65.5341 186.79 62.6007 181.616C61.2508 179.226 60.265 176.649 59.6758 173.968C59.5145 173.325 59.3937 172.673 59.3141 172.015C59.2314 171.363 59.097 170.723 59.066 170.082C58.7863 166.404 59.175 162.707 60.2133 159.168C60.866 157.041 61.7716 155.001 62.9108 153.091C64.8394 149.779 67.4499 146.915 70.5692 144.688C72.9252 143.022 75.541 141.758 78.3103 140.947L79.9329 140.533C80.4105 140.423 80.8935 140.336 81.3799 140.275C82.134 140.135 82.8975 140.052 83.664 140.027L85.0799 139.975C85.2409 139.953 85.4032 139.943 85.5657 139.944Z" fill="#009a00"/>
<path d="M91.4568 164.046H89.5447L85.4106 158.238V154.424C85.4106 154.424 82.4547 154.238 82.8061 159.23C83.1575 164.222 82.8061 162.95 82.8061 162.95C82.8061 162.95 76.5326 162.95 76.0159 163.519C75.4991 164.087 75.4681 170.144 75.3958 173.523C75.3561 174.338 75.5899 175.143 76.0599 175.809C76.5299 176.476 77.2092 176.966 77.9899 177.203C78.2087 177.263 78.4346 177.295 78.6617 177.296C80.2327 177.296 88.2218 176.025 88.2218 176.025H91.5188L91.4568 164.046Z" fill="#009a00"/>
<path d="M96.9241 163.023L95.7459 176.087H92.4799V163.292L96.9241 163.023Z" fill="#009a00"/>
<path d="M135.878 428.98V420.144L120.034 420.03L119.899 433.393L120.881 433.466C125.253 433.745 143.123 434.158 146.058 433.249C149.324 432.236 135.878 428.98 135.878 428.98Z" fill="#009a00"/>
<path d="M146.43 432.422C146.43 432.566 140.498 432.69 133.191 432.69C125.884 432.69 119.951 432.566 119.951 432.422C119.951 432.277 125.884 432.153 133.191 432.153C140.498 432.153 146.43 432.277 146.43 432.422Z" fill="#263238"/>
<path d="M136.157 430.789C136.022 430.717 136.157 430.251 136.477 429.755C136.798 429.259 137.232 429.053 137.335 429.156C137.438 429.259 137.221 429.652 136.911 430.076C136.601 430.5 136.291 430.861 136.157 430.789Z" fill="#263238"/>
<path d="M137.17 431.368C137.025 431.368 137.097 430.789 137.407 430.241C137.717 429.693 138.131 429.363 138.244 429.445C138.358 429.528 138.172 429.993 137.883 430.479C137.593 430.965 137.304 431.419 137.17 431.368Z" fill="#263238"/>
<path d="M124.726 432.38C124.664 432.38 124.426 432.194 124.085 431.802C123.669 431.297 123.205 430.833 122.7 430.417C122.204 430.02 121.612 429.76 120.985 429.662C120.499 429.6 120.189 429.662 120.158 429.6C120.127 429.538 120.426 429.321 120.995 429.28C121.745 429.264 122.477 429.513 123.062 429.983C123.61 430.429 124.072 430.972 124.426 431.585C124.664 432.039 124.788 432.339 124.726 432.38Z" fill="#263238"/>
<path d="M136.208 429.125C136.281 429.249 136.012 429.559 135.557 429.724C135.103 429.89 134.7 429.828 134.679 429.724C134.658 429.621 134.979 429.404 135.371 429.259C135.764 429.115 136.126 429.001 136.208 429.125Z" fill="#263238"/>
<path d="M135.96 428.267C135.96 428.422 135.547 428.546 135.01 428.556C134.472 428.567 134.048 428.443 134.059 428.298C134.069 428.153 134.493 428.019 135.01 428.009C135.526 427.998 135.94 428.122 135.96 428.267Z" fill="#263238"/>
<path d="M174.893 428.98V420.144L159.049 420.03L158.915 433.259L159.897 433.331C164.269 433.61 182.149 434.158 185.074 433.249C188.34 432.236 174.893 428.98 174.893 428.98Z" fill="#009a00"/>
<path d="M185.446 432.443C185.446 432.587 179.524 432.711 172.206 432.711C164.889 432.711 158.977 432.587 158.977 432.443C158.977 432.298 164.899 432.174 172.206 432.174C179.513 432.174 185.446 432.298 185.446 432.443Z" fill="#263238"/>
<path d="M175.172 430.789C175.048 430.717 175.172 430.251 175.493 429.755C175.813 429.259 176.247 429.053 176.351 429.156C176.454 429.259 176.237 429.652 175.927 430.076C175.617 430.5 175.307 430.861 175.172 430.789Z" fill="#263238"/>
<path d="M176.185 431.368C176.051 431.368 176.113 430.789 176.433 430.241C176.754 429.693 177.157 429.363 177.27 429.445C177.384 429.528 177.188 429.993 176.898 430.479C176.609 430.965 176.33 431.419 176.185 431.368Z" fill="#263238"/>
<path d="M163.742 432.38C163.68 432.38 163.452 432.194 163.101 431.802C162.684 431.297 162.221 430.833 161.716 430.417C161.219 430.02 160.628 429.76 160 429.662C159.525 429.6 159.204 429.662 159.173 429.6C159.142 429.538 159.442 429.321 160.011 429.28C160.761 429.264 161.493 429.513 162.078 429.983C162.629 430.427 163.091 430.97 163.442 431.585C163.68 432.039 163.804 432.339 163.742 432.38Z" fill="#263238"/>
<path d="M175.224 429.125C175.296 429.249 175.028 429.559 174.573 429.724C174.118 429.89 173.715 429.828 173.694 429.724C173.674 429.621 173.994 429.404 174.387 429.259C174.78 429.115 175.141 429.001 175.224 429.125Z" fill="#263238"/>
<path d="M174.997 428.267C174.997 428.422 174.583 428.546 174.046 428.556C173.508 428.567 173.095 428.443 173.105 428.298C173.116 428.153 173.529 428.019 174.046 428.009C174.563 427.998 174.997 428.122 174.997 428.267Z" fill="#263238"/>
<path d="M233.267 166.568C232.854 166.144 231.83 166.351 231.83 166.351C231.933 165.756 231.933 165.148 231.83 164.553C231.644 163.974 230.342 164.087 230.342 164.087C230.282 163.6 230.282 163.107 230.342 162.62C230.352 162.512 230.329 162.403 230.276 162.309C230.222 162.215 230.14 162.139 230.042 162.093C229.426 161.842 228.764 161.722 228.099 161.741C227.303 161.173 230.528 156.656 231.727 155.209C232.926 153.763 232.709 152.636 231.644 152.636C230.91 152.636 227.148 156.977 225.991 158.434C224.833 159.891 221.764 163.943 221.66 160.708C221.557 157.473 220.255 155.034 219.438 154.62C218.622 154.207 217.754 155.178 218.198 156.078C218.589 157.099 218.832 158.171 218.922 159.261C219.034 160.129 218.995 161.01 218.808 161.865C218.465 163.457 217.999 165.018 217.413 166.537H217.33C217.33 166.537 194.778 188.169 193.145 189.709C191.688 191.093 162.377 188.065 156.497 187.445C154.498 187.153 152.48 187.015 150.461 187.032C147.908 187.145 147.453 187.507 144.911 187.538C138.49 187.609 132.084 188.173 125.749 189.223C122.881 189.71 120.201 190.977 118.003 192.883C115.805 194.789 114.173 197.263 113.285 200.034C107.363 218.534 93.9475 262.324 91.5808 286.922C89.7923 290.165 88.1777 293.501 86.7439 296.916C85.0799 301.443 85.483 301.598 86.0411 301.701C87.55 301.981 89.2657 293.857 89.9065 295.821C90.5472 297.784 86.6509 305.505 88.2322 305.732C90.2992 306.022 91.9425 297.464 92.1389 296.782C92.3353 296.1 93.3584 296.317 93.1724 296.958C92.8727 297.867 89.9685 307.51 91.9942 307.82C93.1104 307.985 93.2344 305.949 93.2344 305.949C93.2344 305.949 95.3015 296.72 96.242 296.906C97.1825 297.092 96.18 302.539 95.7045 304.358C95.2291 306.177 95.8906 307.097 96.8621 306.652C97.5235 306.342 99.1049 300.813 99.5389 299.014C99.973 297.216 101.058 292.234 102.515 295.118C103.973 298.001 106.185 299.676 107.094 299.717C107.299 299.693 107.492 299.609 107.649 299.475C107.805 299.34 107.918 299.162 107.972 298.963C108.027 298.764 108.021 298.554 107.954 298.358C107.888 298.163 107.765 297.992 107.6 297.867C106.818 297.103 106.147 296.233 105.606 295.283C105.124 294.543 104.774 293.725 104.572 292.865C104.156 291.15 103.913 289.398 103.849 287.635L103.683 286.602C105.998 275.14 112.665 241.499 122.287 220.012L126.235 228.135L127.951 234.15L117.429 260.123L162.305 259.534L155.608 233.757L163.742 206.886C172.537 207.082 195.119 207.413 198.881 205.708C203.615 203.641 228.099 172.717 228.099 172.717C229.695 171.477 231.224 170.152 232.678 168.749C232.678 168.749 234.166 167.498 233.267 166.568Z" fill="#FFBE9D"/>
<path d="M115.455 240.93C116.757 236.486 123.444 214.513 123.444 214.513C123.444 214.513 126.731 232.424 125.863 234.584C125.064 236.433 124.121 238.217 123.041 239.917C115.455 251.462 116.447 257.239 116.447 257.239L162.284 255.844C162.388 249.436 158.595 234.533 157.809 232.155C157.024 229.778 159.639 221.996 159.639 221.996C159.639 221.996 164.806 216.735 164.62 214.027C164.522 211.595 164.221 209.175 163.721 206.793L191.626 207.826L190.748 188.913L150.667 184.903C149.272 188.84 136.653 186.908 136.653 186.908C123.031 187.362 122.184 189.864 116.52 194.266C110.856 198.669 101.482 236.455 101.482 236.455L115.455 240.93Z" fill="#009a00"/>
<path d="M142.554 236.455C141.76 236.597 140.951 236.639 140.146 236.579C138.648 236.579 136.591 236.476 134.327 236.248C132.064 236.021 130.018 235.7 128.56 235.411C127.757 235.308 126.969 235.106 126.214 234.812C127.022 234.812 127.829 234.888 128.622 235.039C130.09 235.225 132.126 235.483 134.379 235.711C136.632 235.938 138.679 236.093 140.157 236.197C140.962 236.207 141.765 236.293 142.554 236.455Z" fill="#263238"/>
<path d="M145.696 232.559C144.902 232.948 144.061 233.236 143.195 233.416C139.072 234.5 134.818 235.004 130.555 234.915C129.673 234.944 128.791 234.86 127.93 234.667C128.8 234.557 129.678 234.512 130.555 234.533C132.178 234.481 134.41 234.367 136.87 234.078C139.33 233.788 141.521 233.375 143.071 233.044C143.932 232.814 144.81 232.652 145.696 232.559Z" fill="#263238"/>
<path d="M161.116 215.175C161.096 215.963 160.988 216.746 160.796 217.51C160.527 218.947 160.114 220.911 159.587 223.06C159.06 225.21 158.553 227.195 158.099 228.538C157.916 229.307 157.645 230.053 157.292 230.76C157.35 229.975 157.496 229.198 157.726 228.445C158.119 226.833 158.564 224.973 159.06 222.936C159.556 220.9 160.031 219.04 160.424 217.428C160.564 216.652 160.796 215.895 161.116 215.175Z" fill="#263238"/>
<path d="M115.941 238.295C113.55 237.925 111.19 237.376 108.882 236.651C106.523 236.1 104.209 235.374 101.957 234.481C104.347 234.856 106.707 235.405 109.016 236.124C111.376 236.674 113.69 237.399 115.941 238.295Z" fill="#263238"/>
<path d="M164.217 206.565C163.827 206.633 163.429 206.633 163.039 206.565C161.959 206.455 160.899 206.201 159.887 205.811C158.196 205.176 156.657 204.194 155.368 202.928C154.079 201.663 153.07 200.142 152.404 198.463C151.668 196.616 151.354 194.628 151.484 192.644C151.53 191.007 152.019 189.414 152.9 188.034C153.519 187.105 154.444 186.421 155.515 186.102C155.801 186.023 156.097 185.984 156.393 185.988C156.6 185.988 156.703 185.988 156.703 185.988C156.703 185.988 156.269 185.988 155.577 186.267C154.595 186.63 153.762 187.31 153.21 188.2C151.804 190.411 151.412 194.452 152.91 198.225C153.608 200.004 154.7 201.601 156.104 202.896C157.254 203.956 158.58 204.81 160.021 205.418C161.373 205.953 162.781 206.337 164.217 206.565Z" fill="#263238"/>
<path d="M188.309 207.454C188.05 204.285 187.967 201.104 188.06 197.925C187.98 194.749 188.076 191.571 188.35 188.406C188.609 191.572 188.691 194.75 188.598 197.925C188.685 201.104 188.588 204.286 188.309 207.454Z" fill="#263238"/>
<path d="M150.399 186.06C150.512 183.755 150.75 181.151 150.75 181.151C150.75 181.151 156.455 180.52 156.796 174.629C157.137 168.738 156.796 155.147 156.796 155.147L146.461 149.856L134.989 158.878L136.756 188.334L147.278 189.006C148.082 189.028 148.862 188.73 149.447 188.178C150.032 187.626 150.374 186.864 150.399 186.06Z" fill="#FFBE9D"/>
<path d="M151.422 169.968C151.422 169.968 151.422 170.082 151.329 170.216C151.252 170.314 151.153 170.391 151.039 170.441C150.926 170.492 150.802 170.514 150.678 170.506C150.016 170.506 149.376 169.741 149.148 168.852C149.04 168.421 149.04 167.97 149.148 167.539C149.169 167.351 149.237 167.172 149.346 167.016C149.454 166.861 149.599 166.735 149.768 166.651C149.907 166.593 150.063 166.593 150.202 166.651C150.305 166.702 150.389 166.785 150.44 166.888C150.512 167.064 150.44 167.178 150.44 167.167C150.44 167.157 150.44 167.064 150.337 166.961C150.283 166.887 150.203 166.835 150.114 166.816C150.024 166.797 149.93 166.812 149.851 166.857C149.724 166.934 149.619 167.041 149.545 167.17C149.471 167.298 149.43 167.443 149.427 167.591C149.34 167.976 149.34 168.375 149.427 168.759C149.634 169.565 150.192 170.216 150.688 170.278C150.785 170.291 150.884 170.284 150.978 170.258C151.072 170.231 151.16 170.185 151.236 170.123C151.36 170.041 151.401 169.958 151.422 169.968Z" fill="#EB996E"/>
<path d="M160.341 151.964C159.545 149.256 156.662 147.913 154.037 147.169C150.037 146.032 145.717 145.536 141.81 146.972C137.903 148.409 133.211 150.931 133.211 155.24C130.906 155.054 129.584 157.07 128.674 159.571C128.093 161.095 127.744 162.697 127.641 164.325C127.351 169.968 125.77 177.761 122.111 181.895C120.044 184.2 117.181 185.791 116.003 188.665C114.969 191.155 115.507 194.111 114.546 196.633C113.688 198.855 111.797 200.437 110.412 202.369C109.001 204.562 108.17 207.077 107.999 209.679C107.827 212.28 108.319 214.883 109.43 217.242C110.548 219.54 112.123 221.587 114.058 223.257C115.993 224.927 118.248 226.186 120.685 226.957C125.513 228.426 130.661 228.476 135.516 227.102C139.16 226.23 142.559 224.545 145.459 222.172C148.425 219.749 150.463 216.375 151.226 212.622C151.959 208.405 150.781 204.116 149.903 199.92C147.153 186.66 147.939 185.967 151.412 173.658C151.494 173.441 151.536 173.213 151.598 172.996C151.66 172.779 151.691 172.676 151.732 172.511C151.831 172.024 151.883 171.529 151.887 171.033C151.38 171.221 150.829 171.261 150.3 171.148C149.771 171.034 149.285 170.772 148.9 170.392C148.514 169.987 148.245 169.484 148.121 168.939C147.997 168.393 148.024 167.823 148.197 167.291C148.441 166.709 148.805 166.185 149.264 165.752C149.723 165.32 150.268 164.988 150.864 164.78C152.011 164.304 153.241 164.056 154.368 163.529C156.755 162.392 158.409 160.036 159.535 157.566C160.461 155.854 160.747 153.868 160.341 151.964Z" fill="#263238"/>
<path d="M151.835 170.247C152.054 170.57 152.234 170.917 152.373 171.281C152.683 171.932 153.096 172.852 153.551 173.916L153.634 174.113H153.417L152.383 174.206C151.67 174.206 151.071 174.34 150.368 174.33C150.307 174.316 150.25 174.287 150.203 174.245C150.156 174.204 150.12 174.151 150.099 174.092C150.068 173.998 150.068 173.897 150.099 173.803C150.123 173.663 150.154 173.525 150.192 173.389L150.378 172.655C150.472 172.166 150.617 171.688 150.812 171.229C150.793 171.728 150.72 172.224 150.595 172.707L150.45 173.441C150.399 173.689 150.306 174.071 150.45 174.04C150.967 174.04 151.701 173.927 152.383 173.885L153.417 173.792L153.282 174.02C152.838 172.986 152.466 172.015 152.249 171.343C152.058 171 151.919 170.631 151.835 170.247Z" fill="#009a00"/>
<path d="M116.447 257.239L162.284 255.844L182.231 333.71L178.562 423.027H154.326L157.292 335.611L139.567 281.403L142.296 426.489L117.801 426.851L115.228 290.477C115.114 286.684 113.874 278.137 114.339 274.375L116.447 257.239Z" fill="#263238"/>
<path d="M145.665 282.509C144.915 282.556 144.162 282.511 143.422 282.374C142.038 282.209 140.146 281.92 138.069 281.506C135.991 281.093 134.131 280.617 132.787 280.235C132.069 280.077 131.374 279.827 130.72 279.491C130.72 279.336 134.09 280.142 138.224 280.979C142.358 281.816 145.686 282.354 145.665 282.509Z" fill="#455A64"/>
<path d="M178.314 418.128C178.314 418.273 172.826 418.397 166.057 418.397C159.287 418.397 153.789 418.273 153.789 418.128C153.789 417.984 159.277 417.859 166.057 417.859C172.837 417.859 178.314 417.973 178.314 418.128Z" fill="#455A64"/>
<path d="M142.079 422.717C142.079 422.872 136.746 422.986 130.173 422.986C123.599 422.986 118.277 422.872 118.277 422.717C118.277 422.562 123.61 422.448 130.173 422.448C136.736 422.448 142.079 422.572 142.079 422.717Z" fill="#455A64"/>
<path d="M138.916 422.345C138.772 422.345 138.131 390.647 137.48 351.548C136.829 312.45 136.446 280.731 136.581 280.731C136.715 280.731 137.376 312.419 138.017 351.538C138.658 390.657 139.071 422.345 138.916 422.345Z" fill="#455A64"/>
<path d="M175.059 418.128C175.047 417.987 175.047 417.845 175.059 417.704V416.464C175.059 415.348 175.141 413.746 175.203 411.71C175.348 407.576 175.555 401.571 175.813 394.212C176.371 379.412 177.157 359.01 178.015 336.49C178.015 336.273 178.015 336.066 178.015 335.88V335.952C172.589 314.248 167.679 294.549 164.114 280.297L159.98 263.44C159.504 261.466 159.142 259.926 158.884 258.851C158.76 258.345 158.677 257.952 158.605 257.653C158.565 257.518 158.54 257.379 158.533 257.239C158.586 257.369 158.628 257.504 158.657 257.642C158.739 257.932 158.843 258.324 158.987 258.82C159.266 259.854 159.669 261.425 160.186 263.389C161.22 267.378 162.677 273.124 164.496 280.204C168.093 294.446 173.054 314.093 178.552 335.828V335.901C178.552 336.087 178.552 336.304 178.552 336.511C177.632 359.031 176.795 379.423 176.185 394.223C175.865 401.592 175.596 407.555 175.41 411.71C175.307 413.777 175.224 415.348 175.172 416.464C175.172 416.991 175.11 417.405 175.1 417.704C175.102 417.847 175.088 417.989 175.059 418.128Z" fill="#455A64"/>
<path d="M167.152 334.061C165.411 334.634 163.618 335.032 161.799 335.25C159.566 335.632 157.664 335.901 156.807 335.942V335.735C157.086 335.818 157.23 335.87 157.23 335.911C157.23 335.953 157.055 335.911 156.765 335.911H156.145L156.765 335.725C157.571 335.487 159.473 335.095 161.706 334.692C163.496 334.303 165.32 334.092 167.152 334.061Z" fill="#455A64"/>
<path d="M166.728 337.027C165.116 337.101 163.501 337.029 161.902 336.81C160.288 336.777 158.679 336.601 157.096 336.283C160.326 336.02 163.577 336.271 166.728 337.027Z" fill="#455A64"/>
<path opacity="0.2" d="M116.251 258.882C116.794 259.58 117.478 260.154 118.258 260.569C119.038 260.984 119.896 261.23 120.778 261.291C122.624 261.509 124.491 261.474 126.328 261.187C138.162 259.875 150.698 258.665 162.284 255.844C147.288 256.681 131.444 256.402 116.447 257.239L116.292 258.521" fill="black"/>
<g opacity="0.2">
<path d="M131.702 280.018L140.157 312.822L139.567 281.403L131.702 280.018Z" fill="black"/>
</g>
</svg>
