<svg width="50" height="50" viewBox="0 0 50 50" fill="none" xmlns="http://www.w3.org/2000/svg">
<path fill-rule="evenodd" clip-rule="evenodd" d="M3.125 0C1.39911 0 0 1.39911 0 3.125V25C0 38.8071 11.1929 50 25 50C25.8985 50 26.5973 49.25 26.5973 48.3515V30.4167C26.5973 28.9592 25.4158 27.7778 23.9584 27.7778C22.5009 27.7778 21.3195 28.9592 21.3195 30.4167V36.25C21.3195 37.7074 20.138 38.8889 18.6806 38.8889C17.2232 38.8889 16.0417 37.7074 16.0417 36.25V9.99999C16.0417 4.47714 11.5645 0 6.0417 0H3.125ZM25 0C22.9673 0 21.3195 1.64783 21.3195 3.68052V19.5833C21.3195 21.0408 22.5009 22.2222 23.9584 22.2222C25.4158 22.2222 26.5973 21.0408 26.5973 19.5833V13.75C26.5973 12.2926 27.7787 11.1111 29.2361 11.1111C30.6936 11.1111 31.875 12.2926 31.875 13.75V35.7893C31.875 42.432 38.4959 47.0667 43.0833 42.2626C47.3684 37.775 50 31.6948 50 25C50 11.1929 38.8071 0 25 0Z" fill="#00BE00"/>
</svg>
